<svg width="52" height="52" viewBox="0 0 52 52" fill="none" xmlns="http://www.w3.org/2000/svg">
<rect x="0.818148" y="0.818148" width="50.3637" height="50.3637" rx="25.1819" fill="#F1F2F4"/>
<rect x="0.818148" y="0.818148" width="50.3637" height="50.3637" rx="25.1819" stroke="#2C50F2" stroke-width="1.6363"/>
<path d="M11 34.4098L26.2161 42.8178V26.0018L11 17.5938V34.4098Z" fill="#BE9B74"/>
<path d="M11 17.5955L26.2161 26.0035L41.4321 17.5955L26.2161 9.1875L11 17.5955Z" fill="#F8D8A8"/>
<path d="M26.2188 42.8178L41.4348 34.4098V17.5938L26.2188 26.0018V42.8178Z" fill="#F4CB95"/>
<path d="M32.2617 27.2059L35.3883 25.4042V21L32.2617 22.6015V27.2059Z" fill="#2C50F2"/>
<path d="M35.3842 21.0018L32.2576 22.6033L17.25 14.1953L20.1682 12.5938L35.3842 21.0018Z" fill="#8752EA"/>
<path d="M13.159 34.7776L11.6562 33.9434V33.7344L13.159 34.5686V34.7776ZM12.4076 33.3165L12.2198 33.2123V33.8373L11.8441 33.6287V33.0037L11.6562 32.8994L12.0319 32.482L12.4076 33.3165ZM13.1572 33.7298L12.9694 33.6255V34.2515L12.5937 34.0429V33.4169L12.4059 33.3127L12.7816 32.8962L13.1572 33.7298Z" fill="#735D41"/>
<path d="M14.207 33.6944C14.0941 34.0577 14.1273 34.4879 14.5856 34.8631L14.6122 35.5097C14.559 35.4873 14.3332 35.3619 14.3199 35.4256L14.9975 35.8017C14.9842 35.7233 14.765 35.6016 14.7052 35.5614L14.7317 34.9442C15.1901 35.078 15.2233 34.6846 15.1104 34.1959L14.765 34.0042L14.6587 34.2221L14.7982 34.2853L14.5856 34.5933L14.652 34.2894L14.5192 34.2298L14.5923 33.9083L14.207 33.6944Z" fill="#735D41"/>
<g clip-path="url(#clip0_3_1794)">
<path d="M16.9147 36.1148C16.8697 36.0898 16.8396 36.1065 16.8396 36.1565V36.5736C16.8396 36.6237 16.8095 36.6404 16.7645 36.6154C16.7194 36.5903 16.6893 36.5403 16.6893 36.4902C16.6893 36.4402 16.6593 36.3901 16.6142 36.3651C16.5691 36.3401 16.5391 36.3567 16.5391 36.4068C16.5391 36.5486 16.6367 36.7113 16.7645 36.7822C16.8922 36.8531 16.9899 36.7989 16.9899 36.6571V36.2399C16.9899 36.1899 16.9598 36.1398 16.9147 36.1148Z" fill="#735D41"/>
<path d="M16.9905 35.4153V35.3235C16.9905 35.2734 16.9605 35.2234 16.9154 35.1984C16.8703 35.1733 16.8403 35.19 16.8403 35.2401V35.3318C16.4646 35.165 16.1641 35.3485 16.1641 35.7823C16.1641 35.8324 16.1941 35.8824 16.2392 35.9075C16.2843 35.9325 16.3143 35.9158 16.3143 35.8658C16.3143 35.774 16.382 35.7365 16.4646 35.7823C16.5472 35.8282 16.6149 35.9408 16.6149 36.0326C16.6149 36.0827 16.6449 36.1327 16.69 36.1577C16.7351 36.1828 16.7651 36.1661 16.7651 36.116C16.7651 36.0243 16.8328 35.9867 16.9154 36.0326C16.998 36.0785 17.0657 36.1911 17.0657 36.2829C17.0657 36.3329 17.0957 36.383 17.1408 36.408C17.1859 36.433 17.2159 36.4164 17.2159 36.3663C17.2159 36.2745 17.2836 36.237 17.3662 36.2829C17.4489 36.3288 17.5165 36.4414 17.5165 36.5331C17.5165 36.5832 17.5465 36.6333 17.5916 36.6583C17.6367 36.6833 17.6667 36.6666 17.6667 36.6166C17.6667 36.1828 17.3662 35.6655 16.9905 35.4153Z" fill="#735D41"/>
</g>
<path fill-rule="evenodd" clip-rule="evenodd" d="M21.7175 15.2333C21.7644 15.2072 21.7517 15.167 21.6824 15.1297L21.5332 15.0469L21.3765 15.1339L21.5257 15.2167C21.5939 15.2545 21.6664 15.2617 21.7175 15.2333ZM21.9846 15.061C22.0293 15.0362 22.0229 15.003 21.9675 14.9735L21.8183 14.8906L21.6734 14.9711L21.8226 15.0539C21.8769 15.0841 21.9377 15.0871 21.9846 15.061ZM22.2188 15.1509C22.141 15.1941 22.028 15.2012 21.9278 15.1692C22.0035 15.2325 21.9886 15.3059 21.8926 15.3591C21.7648 15.4301 21.5729 15.4124 21.3971 15.3148L21.0283 15.11L21.7754 14.6953L22.1303 14.8924C22.2998 14.9864 22.3339 15.087 22.2188 15.1509Z" fill="white"/>
<path fill-rule="evenodd" clip-rule="evenodd" d="M22.3161 15.4152C22.1947 15.4826 22.1957 15.5874 22.3066 15.6489C22.4184 15.711 22.6018 15.7087 22.7233 15.6412C22.8448 15.5738 22.8469 15.4732 22.735 15.4111C22.6231 15.3489 22.4376 15.3478 22.3161 15.4152ZM22.9237 15.7523C22.7052 15.8736 22.3684 15.8688 22.1371 15.7404C21.9058 15.6121 21.8973 15.4251 22.1158 15.3038C22.3332 15.1831 22.6668 15.1896 22.8981 15.318C23.1294 15.4464 23.14 15.6322 22.9237 15.7523Z" fill="white"/>
<path fill-rule="evenodd" clip-rule="evenodd" d="M23.2103 15.9241L23.352 16.0028C23.4309 16.0466 23.5172 16.0495 23.5929 16.0075C23.6665 15.9667 23.6601 15.9193 23.5812 15.8756L23.4395 15.7969L23.2103 15.9241ZM23.102 16.2654L23.2001 16.0903L23.1958 16.0879L23.0551 16.0098L22.8483 16.1246L22.6532 16.0163L23.4004 15.6016L23.7361 15.7879C23.9344 15.898 23.9514 16.014 23.7852 16.1063C23.6722 16.169 23.5422 16.1891 23.4111 16.166L23.3226 16.3879L23.102 16.2654Z" fill="white"/>
<path fill-rule="evenodd" clip-rule="evenodd" d="M24.3099 16.5193C24.4389 16.4477 24.442 16.3525 24.3238 16.2868L24.2012 16.2188L23.7706 16.4578L23.9027 16.5311C24.0157 16.5938 24.182 16.5903 24.3099 16.5193ZM24.5124 16.6299C24.2897 16.7535 23.9752 16.747 23.7333 16.6127L23.4189 16.4382L24.166 16.0234L24.4879 16.2021C24.7245 16.3335 24.7341 16.5068 24.5124 16.6299Z" fill="white"/>
<path fill-rule="evenodd" clip-rule="evenodd" d="M25.5758 16.8116L25.4202 16.8979L25.0258 16.679L24.8862 16.7565L25.2421 16.9541L25.0876 17.0399L24.7306 16.8429L24.5899 16.921L24.9949 17.1459L24.8393 17.2322L24.2392 16.8991L24.9863 16.4844L25.5758 16.8116Z" fill="white"/>
<path fill-rule="evenodd" clip-rule="evenodd" d="M25.515 17.1975L25.6567 17.2762C25.7356 17.32 25.8219 17.3229 25.8976 17.2809C25.9711 17.2401 25.9648 17.1928 25.8859 17.149L25.7441 17.0703L25.515 17.1975ZM25.4067 17.5388L25.5047 17.3637L25.5004 17.3613L25.3598 17.2832L25.153 17.398L24.9579 17.2898L25.7051 16.875L26.0408 17.0614C26.2391 17.1714 26.2561 17.2874 26.0898 17.3797C25.9769 17.4424 25.8468 17.4625 25.7157 17.4394L25.6273 17.6613L25.4067 17.5388Z" fill="white"/>
<path fill-rule="evenodd" clip-rule="evenodd" d="M26.6736 17.4208L26.0927 17.7432L26.4093 17.919L26.243 18.0113L25.7314 17.7273L26.4785 17.3125L26.6736 17.4208Z" fill="white"/>
<path fill-rule="evenodd" clip-rule="evenodd" d="M27.6656 17.9678L27.51 18.0542L27.1156 17.8353L26.976 17.9128L27.332 18.1104L27.1774 18.1962L26.8204 17.9992L26.6797 18.0773L27.0847 18.3021L26.9291 18.3885L26.329 18.0554L27.0762 17.6406L27.6656 17.9678Z" fill="white"/>
<path fill-rule="evenodd" clip-rule="evenodd" d="M27.9186 18.2788C27.8717 18.2528 27.8238 18.2451 27.7896 18.264C27.666 18.3326 28.1296 18.5119 27.8611 18.661C27.7087 18.7456 27.4966 18.7142 27.3303 18.622C27.2056 18.5527 27.1214 18.4551 27.1054 18.3646L27.3335 18.322C27.3441 18.4012 27.4134 18.4918 27.4912 18.535C27.5488 18.5669 27.6063 18.5752 27.6457 18.5533C27.7726 18.4829 27.3026 18.3072 27.5669 18.1605C27.7065 18.0829 27.9133 18.0995 28.0934 18.1995C28.2032 18.2605 28.2799 18.3409 28.3076 18.4119L28.0795 18.4569C28.0454 18.3882 27.9804 18.3131 27.9186 18.2788Z" fill="white"/>
<path fill-rule="evenodd" clip-rule="evenodd" d="M28.6061 18.6616C28.5592 18.6356 28.5112 18.6279 28.4771 18.6468C28.3535 18.7154 28.8171 18.8947 28.5485 19.0438C28.3961 19.1284 28.184 19.097 28.0178 19.0048C27.8931 18.9355 27.8089 18.8379 27.7929 18.7474L28.0209 18.7048C28.0316 18.7841 28.1009 18.8746 28.1787 18.9178C28.2363 18.9497 28.2938 18.958 28.3332 18.9361C28.4601 18.8657 27.99 18.69 28.2543 18.5433C28.394 18.4657 28.6008 18.4823 28.7809 18.5823C28.8906 18.6433 28.9674 18.7237 28.9951 18.7947L28.767 18.8397C28.7329 18.771 28.6679 18.6959 28.6061 18.6616Z" fill="white"/>
<path fill-rule="evenodd" clip-rule="evenodd" d="M29.1585 19.3705C29.021 19.4468 28.8164 19.4386 28.6384 19.3398C28.5446 19.2877 28.4775 19.2173 28.4551 19.1564L28.5627 19.138C28.5776 19.1948 28.6299 19.2534 28.7077 19.2966C28.8388 19.3693 28.9795 19.3776 29.0722 19.3262C29.1671 19.2735 29.1372 19.2025 29.005 19.1291L28.906 19.0741L28.9582 19.0451L29.4516 19.0469L29.0882 18.8451L29.166 18.8008L29.6382 19.0629L29.5817 19.0942L29.0615 19.093L29.1052 19.1197C29.2502 19.2084 29.279 19.3037 29.1585 19.3705Z" fill="#05E7FF"/>
<path fill-rule="evenodd" clip-rule="evenodd" d="M29.4096 19.5009C29.3371 19.5411 29.2987 19.624 29.4287 19.6961C29.5353 19.7553 29.6749 19.7606 29.7826 19.7009C29.8838 19.6447 29.8785 19.5719 29.7719 19.5127C29.6515 19.4459 29.4991 19.4512 29.4096 19.5009ZM30.0614 19.3728C29.8983 19.2823 29.684 19.3113 29.4901 19.4332C29.6137 19.4012 29.7448 19.4184 29.8567 19.4805C30.0048 19.5627 30.0059 19.6639 29.861 19.7444C29.7096 19.8284 29.5146 19.8242 29.36 19.7384C29.1767 19.6367 29.1948 19.5024 29.424 19.3752C29.6627 19.2426 29.9377 19.2225 30.1296 19.329C30.1989 19.3675 30.2596 19.4249 30.2895 19.4769L30.1893 19.4947C30.1679 19.4509 30.12 19.4053 30.0614 19.3728Z" fill="#05E7FF"/>
<path fill-rule="evenodd" clip-rule="evenodd" d="M30.1815 19.7786C29.9779 19.8916 29.9396 19.9851 30.0664 20.0555C30.1911 20.1247 30.3606 20.104 30.5641 19.991C30.7677 19.878 30.8029 19.7851 30.6782 19.7159C30.5513 19.6455 30.3851 19.6656 30.1815 19.7786ZM30.6487 20.0388C30.4067 20.1731 30.1734 20.1926 29.9964 20.0944C29.8184 19.9956 29.8536 19.866 30.0955 19.7317C30.3364 19.598 30.5698 19.5784 30.7478 19.6772C30.9248 19.7755 30.8896 19.905 30.6487 20.0388Z" fill="#05E7FF"/>
<defs>
<clipPath id="clip0_3_1794">
<rect width="1.71872" height="1.66847" fill="white" transform="matrix(0.874302 0.485383 0 1 16.1641 34.7812)"/>
</clipPath>
</defs>
</svg>
