<svg width="40" height="40" viewBox="0 0 40 40" fill="none" xmlns="http://www.w3.org/2000/svg">
<rect x="0.416667" y="0.416667" width="39.1667" height="39.1667" rx="19.5833" fill="#F4F5FE"/>
<rect x="0.416667" y="0.416667" width="39.1667" height="39.1667" rx="19.5833" stroke="#7766B0" stroke-width="0.833333"/>
<g clip-path="url(#clip0_1_34852)">
<path d="M22.7778 13.75H12.3611V22.7778H22.7778V13.75Z" stroke="#2C50F2" stroke-width="2.0697"/>
<path d="M22.7777 17.2224H25.5555L27.6388 19.3057V22.778H22.7777V17.2224Z" stroke="#2C50F2" stroke-width="2.0697"/>
<path d="M15.4861 26.2501C16.4449 26.2501 17.2222 25.4728 17.2222 24.5139C17.2222 23.5551 16.4449 22.7778 15.4861 22.7778C14.5273 22.7778 13.75 23.5551 13.75 24.5139C13.75 25.4728 14.5273 26.2501 15.4861 26.2501Z" stroke="#2C50F2" stroke-width="2.0697"/>
<path d="M24.5138 26.2501C25.4726 26.2501 26.2499 25.4728 26.2499 24.5139C26.2499 23.5551 25.4726 22.7778 24.5138 22.7778C23.555 22.7778 22.7777 23.5551 22.7777 24.5139C22.7777 25.4728 23.555 26.2501 24.5138 26.2501Z" stroke="#2C50F2" stroke-width="2.0697"/>
</g>
<defs>
<clipPath id="clip0_1_34852">
<rect width="16.6667" height="16.6667" fill="white" transform="translate(11.6666 11.6667)"/>
</clipPath>
</defs>
</svg>
