<svg width="28" height="28" viewBox="0 0 28 28" fill="none" xmlns="http://www.w3.org/2000/svg">
<circle cx="13.6" cy="13.6" r="11.6" fill="#2C50F2" stroke="#93A8FA" stroke-width="4"/>
<path d="M17.7148 11.5999L13.4648 13.961M13.4648 13.961L9.21483 11.5999M13.4648 13.961L13.4648 18.711M17.9648 15.9903V11.9317C17.9648 11.7604 17.9648 11.6747 17.9396 11.5983C17.9173 11.5307 17.8808 11.4687 17.8325 11.4163C17.778 11.3572 17.7031 11.3156 17.5534 11.2324L13.8534 9.17682C13.7116 9.09804 13.6407 9.05865 13.5656 9.04321C13.4991 9.02954 13.4306 9.02954 13.3641 9.04321C13.289 9.05865 13.2181 9.09804 13.0763 9.17682L9.37633 11.2324C9.22657 11.3156 9.15169 11.3572 9.09716 11.4163C9.04892 11.4687 9.01242 11.5307 8.99009 11.5983C8.96484 11.6747 8.96484 11.7604 8.96484 11.9317V15.9903C8.96484 16.1616 8.96484 16.2472 8.99009 16.3236C9.01242 16.3912 9.04892 16.4533 9.09716 16.5056C9.15169 16.5648 9.22657 16.6064 9.37633 16.6896L13.0763 18.7451C13.2181 18.8239 13.289 18.8633 13.3641 18.8787C13.4306 18.8924 13.4991 18.8924 13.5656 18.8787C13.6407 18.8633 13.7116 18.8239 13.8534 18.7451L17.5534 16.6896C17.7031 16.6064 17.778 16.5648 17.8325 16.5056C17.8808 16.4533 17.9173 16.3912 17.9396 16.3236C17.9648 16.2472 17.9648 16.1616 17.9648 15.9903Z" stroke="white" stroke-width="0.815287" stroke-linecap="round" stroke-linejoin="round"/>
<path d="M15.7148 12.7109L11.2148 10.2109" stroke="white" stroke-linecap="round" stroke-linejoin="round"/>
</svg>
