<svg width="28" height="28" viewBox="0 0 28 28" fill="none" xmlns="http://www.w3.org/2000/svg">
<circle cx="13.6" cy="13.6" r="11.6" fill="#2C50F2" stroke="#93A8FA" stroke-width="4"/>
<g clip-path="url(#clip0_1_35169)">
<path d="M14.4648 11.4609H15.6335C15.7558 11.4609 15.8169 11.4609 15.8745 11.4748C15.9255 11.487 15.9743 11.5072 16.019 11.5346C16.0694 11.5655 16.1127 11.6088 16.1992 11.6953L18.2305 13.7266C18.317 13.8131 18.3602 13.8563 18.3912 13.9068C18.4186 13.9515 18.4388 14.0003 18.451 14.0513C18.4648 14.1089 18.4648 14.17 18.4648 14.2923V15.7109C18.4648 15.9439 18.4648 16.0604 18.4268 16.1523C18.376 16.2748 18.2787 16.3721 18.1562 16.4229C18.0643 16.4609 17.9478 16.4609 17.7148 16.4609M15.2148 16.4609H14.4648M14.4648 16.4609V11.5609C14.4648 11.0009 14.4648 10.7209 14.3559 10.5069C14.26 10.3188 14.107 10.1658 13.9188 10.0699C13.7049 9.96094 13.4249 9.96094 12.8648 9.96094H10.0648C9.50479 9.96094 9.22477 9.96094 9.01085 10.0699C8.82269 10.1658 8.66971 10.3188 8.57384 10.5069C8.46484 10.7209 8.46484 11.0009 8.46484 11.5609V15.4609C8.46484 16.0132 8.91256 16.4609 9.46484 16.4609M14.4648 16.4609H12.4648M12.4648 16.4609C12.4648 17.2894 11.7933 17.9609 10.9648 17.9609C10.1364 17.9609 9.46484 17.2894 9.46484 16.4609M12.4648 16.4609C12.4648 15.6325 11.7933 14.9609 10.9648 14.9609C10.1364 14.9609 9.46484 15.6325 9.46484 16.4609M17.7148 16.7109C17.7148 17.4013 17.1552 17.9609 16.4648 17.9609C15.7745 17.9609 15.2148 17.4013 15.2148 16.7109C15.2148 16.0206 15.7745 15.4609 16.4648 15.4609C17.1552 15.4609 17.7148 16.0206 17.7148 16.7109Z" stroke="white" stroke-width="0.815287" stroke-linecap="round" stroke-linejoin="round"/>
</g>
<defs>
<clipPath id="clip0_1_35169">
<rect width="12" height="12" fill="white" transform="translate(7.46484 7.96094)"/>
</clipPath>
</defs>
</svg>
