<svg width="148" height="28" viewBox="0 0 148 28" fill="none" xmlns="http://www.w3.org/2000/svg">
<path d="M10.9962 12.0062L1.52878 20.9272C1.32928 21.1152 1.00358 20.9515 1.03721 20.6794C1.33122 18.3012 1.81099 14.2937 1.97053 12.4774C2.14739 10.4638 3.19378 9.79423 3.59701 9.29274C3.60864 9.27828 3.62106 9.26497 3.63499 9.2527L12.9973 1.0068C13.1935 0.833968 13.5006 0.985933 13.4822 1.24677L13.3646 2.91561C13.3099 3.901 13.1582 6.34715 12.9887 8.24872C12.8192 10.1503 11.7071 11.3476 10.9962 12.0062Z" fill="#2C50F2"/>
<path d="M16.9673 11.9211L26.2308 21.0537C26.426 21.2462 26.7553 21.0899 26.7278 20.8171C26.4876 18.4329 26.0985 14.4156 25.98 12.5961C25.8487 10.579 24.8177 9.886 24.4259 9.37553C24.4146 9.36081 24.4025 9.34723 24.3888 9.33465L15.2152 0.879354C15.0229 0.702136 14.7125 0.847126 14.725 1.10831L14.8049 2.77939C14.8373 3.76575 14.9337 6.21471 15.0602 8.11962C15.1866 10.0245 16.2714 11.2466 16.9673 11.9211Z" fill="#2C50F2"/>
<path d="M11.8723 27.2487L25.7609 23.2861C25.9519 23.2316 26.0333 23.0072 25.9087 22.8526C24.6852 21.3345 22.1526 19.9183 20.4575 19.0271C18.6648 18.0845 14.3095 19.4705 13.5911 19.5579C13.5727 19.5601 13.557 19.5631 13.5392 19.5681L1.53908 22.9807C1.28757 23.0522 1.24924 23.3927 1.47855 23.5183L2.9457 24.3223C3.804 24.8094 5.94334 26.0052 7.63425 26.8915C9.32517 27.7778 10.9338 27.4902 11.8723 27.2487Z" fill="#2C50F2"/>
<circle cx="145.366" cy="22.218" r="2.40163" fill="black"/>
<path d="M131.632 24.6197C130 24.6197 128.495 24.3571 127.116 23.8319C125.737 23.3068 124.533 22.5677 123.503 21.6146C122.494 20.6421 121.707 19.514 121.144 18.2303C120.58 16.9466 120.299 15.5365 120.299 14C120.299 12.4634 120.58 11.0533 121.144 9.76958C121.707 8.48588 122.494 7.3675 123.503 6.41445C124.533 5.44195 125.737 4.69313 127.116 4.16797C128.495 3.64282 130 3.38025 131.632 3.38025C133.282 3.38025 134.788 3.64282 136.147 4.16797C137.526 4.69313 138.721 5.44195 139.73 6.41445C140.74 7.3675 141.527 8.48588 142.09 9.76958C142.673 11.0533 142.964 12.4634 142.964 14C142.964 15.5365 142.673 16.9564 142.09 18.2595C141.527 19.5432 140.74 20.6616 139.73 21.6146C138.721 22.5677 137.526 23.3068 136.147 23.8319C134.788 24.3571 133.282 24.6197 131.632 24.6197ZM131.632 19.835C132.408 19.835 133.127 19.6988 133.787 19.4265C134.467 19.1542 135.05 18.7652 135.535 18.2595C136.04 17.7344 136.429 17.112 136.701 16.3923C136.992 15.6727 137.138 14.8752 137.138 14C137.138 13.1053 136.992 12.3078 136.701 11.6076C136.429 10.888 136.04 10.2753 135.535 9.76958C135.05 9.24443 134.467 8.8457 133.787 8.5734C133.127 8.3011 132.408 8.16495 131.632 8.16495C130.855 8.16495 130.126 8.3011 129.447 8.5734C128.786 8.8457 128.204 9.24443 127.699 9.76958C127.213 10.2753 126.825 10.888 126.533 11.6076C126.261 12.3078 126.125 13.1053 126.125 14C126.125 14.8752 126.261 15.6727 126.533 16.3923C126.825 17.112 127.213 17.7344 127.699 18.2595C128.204 18.7652 128.786 19.1542 129.447 19.4265C130.126 19.6988 130.855 19.835 131.632 19.835Z" fill="black"/>
<path d="M113.542 24.5914V3.81299H119.42V24.5914H113.542Z" fill="black"/>
<path d="M100.382 24.5914V8.47329H94V3.81299H112.612V8.47329H106.259V24.5914H100.382Z" fill="black"/>
<path d="M74.9351 24.5914V3.81299H84.226C87.2537 3.81299 89.5789 4.5056 91.2016 5.89083C92.8441 7.25627 93.6653 9.12632 93.6653 11.501C93.6653 13.0643 93.2893 14.4199 92.5373 15.5676C91.7854 16.6956 90.7168 17.5663 89.3315 18.1798C87.9661 18.7734 86.3335 19.0703 84.4338 19.0703H78.2002L80.8124 16.6066V24.5914H74.9351ZM87.788 24.5914L82.6231 17.0221H88.8863L94.0809 24.5914H87.788ZM80.8124 17.2299L78.2002 14.5287H84.0776C85.3045 14.5287 86.2148 14.2616 86.8084 13.7273C87.4219 13.193 87.7286 12.4509 87.7286 11.501C87.7286 10.5313 87.4219 9.77936 86.8084 9.24506C86.2148 8.71076 85.3045 8.4436 84.0776 8.4436H78.2002L80.8124 5.74241V17.2299Z" fill="black"/>
<path d="M62.6596 24.6197C61.0282 24.6197 59.523 24.3571 58.144 23.8319C56.765 23.3068 55.5609 22.5677 54.5315 21.6146C53.5216 20.6421 52.735 19.514 52.1718 18.2303C51.6085 16.9466 51.3269 15.5365 51.3269 14C51.3269 12.4634 51.6085 11.0533 52.1718 9.76958C52.735 8.48588 53.5216 7.3675 54.5315 6.41445C55.5609 5.44195 56.765 4.69313 58.144 4.16797C59.523 3.64282 61.0282 3.38025 62.6596 3.38025C64.3105 3.38025 65.8157 3.64282 67.1752 4.16797C68.5541 4.69313 69.7486 5.44195 70.7585 6.41445C71.7685 7.3675 72.5551 8.48588 73.1183 9.76958C73.701 11.0533 73.9923 12.4634 73.9923 14C73.9923 15.5365 73.701 16.9564 73.1183 18.2595C72.5551 19.5432 71.7685 20.6616 70.7585 21.6146C69.7486 22.5677 68.5541 23.3068 67.1752 23.8319C65.8157 24.3571 64.3105 24.6197 62.6596 24.6197ZM62.6596 19.835C63.4365 19.835 64.1551 19.6988 64.8154 19.4265C65.4952 19.1542 66.0779 18.7652 66.5634 18.2595C67.0684 17.7344 67.4568 17.112 67.7287 16.3923C68.02 15.6727 68.1657 14.8752 68.1657 14C68.1657 13.1053 68.02 12.3078 67.7287 11.6076C67.4568 10.888 67.0684 10.2753 66.5634 9.76958C66.0779 9.24443 65.4952 8.8457 64.8154 8.5734C64.1551 8.3011 63.4365 8.16495 62.6596 8.16495C61.8827 8.16495 61.1544 8.3011 60.4746 8.5734C59.8143 8.8457 59.2316 9.24443 58.7267 9.76958C58.2411 10.2753 57.8527 10.888 57.5613 11.6076C57.2894 12.3078 57.1535 13.1053 57.1535 14C57.1535 14.8752 57.2894 15.6727 57.5613 16.3923C57.8527 17.112 58.2411 17.7344 58.7267 18.2595C59.2316 18.7652 59.8143 19.1542 60.4746 19.4265C61.1544 19.6988 61.8827 19.835 62.6596 19.835Z" fill="black"/>
<path d="M35.2048 24.5914V3.81299H51.501V8.35455H41.0822V24.5914H35.2048ZM40.6666 17.4674V12.9258H50.2543L49.6539 17.4674H40.6666Z" fill="black"/>
</svg>
